# xmcd
#
# Track frame offsets:
#	150
#	14020
#	29109
#	46590
#	67273
#	87634
#	108264
#	124621
#	145637
#
# Disc length: 2170 seconds
# Revision: 0
# Processed by: cddbd v1.5.2PL0 Copyright (c) Steve Scherf et al.
# Submitted via: dBpowerAMP V12.0
#
DISCID=7d087809
DTITLE=Hannah White - Who's Side Are You on
DYEAR=2015
DGENRE=Folk
TTITLE0=1 - Stupid Little Fruit Tree
TTITLE1=2 - I'll Make You Strong
TTITLE2=3 - Whoops
TTITLE3=4 - Who's Side Are You On
TTITLE4=5 - Beautiful Dresses
TTITLE5=6 - His Perfect Mind
TTITLE6=7 - I See Sky
TTITLE7=8 - Tracy Emin
TTITLE8=9 - All That I Know
EXTD=
EXTT0=
EXTT1=
EXTT2=
EXTT3=
EXTT4=
EXTT5=
EXTT6=
EXTT7=
EXTT8=
PLAYORDER=
